<svg id="Layer_1" enable-background="new 0 0 512 512" height="512" viewBox="0 0 512 512" width="512" xmlns="http://www.w3.org/2000/svg"><g><g><path d="m257.121 473.23c-1.155 0-2.314-.029-3.486-.089-25.208-1.292-46.812-14.792-66.403-29.188-32.485-23.871-79.008-73.569-115.767-123.667-32.602-44.433-71.465-107.657-71.465-156.523 0-37.18 12.436-68.709 35.962-91.18 21.71-20.736 51.2-32.484 85.283-33.976 44.95-1.962 84.215 13.702 113.547 45.311 8.9 9.59 15.868 19.548 21.208 28.578 5.34-9.029 12.308-18.987 21.208-28.578 29.333-31.609 68.59-47.275 113.548-45.311 33.195 1.453 63.529 14.045 85.412 35.458 23.441 22.938 35.832 53.955 35.832 89.698 0 48.867-38.863 112.092-71.466 156.525-36.759 50.099-83.282 99.796-115.767 123.666l-.271.2c-16.889 12.352-39.758 29.074-67.375 29.076z" fill="#e50058"/></g><path d="m476.168 74.065c-21.883-21.413-52.217-34.006-85.412-35.458-44.958-1.965-84.215 13.701-113.548 45.311-8.9 9.59-15.868 19.548-21.208 28.578v360.707c.373.006.75.029 1.121.029 27.617-.002 50.486-16.725 67.375-29.077l.271-.2c32.484-23.87 79.008-73.567 115.767-123.666 32.603-44.435 71.466-107.659 71.466-156.526 0-35.743-12.391-66.76-35.832-89.698z" fill="#bf065a"/><g><path d="m256.697 473.558c-.837 0-1.678-.021-2.526-.064-18.075-.926-33.199-10.336-46.849-20.367-21.959-16.136-53.308-49.594-78.007-83.257-22.109-30.133-48.465-73.155-48.465-106.99 0-26.114 8.802-48.325 25.454-64.229 15.321-14.634 36.043-22.921 59.928-23.966 31.396-1.377 58.836 9.593 79.363 31.714 4.014 4.325 7.463 8.76 10.404 13.058 2.941-4.297 6.391-8.733 10.404-13.058 20.528-22.121 47.976-33.094 79.363-31.714 23.3 1.019 44.629 9.896 60.058 24.993 16.567 16.21 25.324 38.065 25.324 63.202 0 33.835-26.356 76.858-48.466 106.991-24.699 33.663-56.048 67.122-78.007 83.257l-.218.16c-11.112 8.128-27.713 20.27-47.76 20.27z" fill="#ff415b"/></g><path d="m405.825 199.677c-15.429-15.098-36.758-23.974-60.058-24.993-31.388-1.38-58.835 9.593-79.363 31.714-4.014 4.325-7.463 8.76-10.404 13.058v254.084c.232.003.466.018.697.018 20.047 0 36.647-12.141 47.762-20.271l.218-.16c21.959-16.135 53.308-49.594 78.007-83.257 22.109-30.133 48.466-73.155 48.466-106.991-.001-25.136-8.757-46.991-25.325-63.202z" fill="#e50058"/><g><path d="m256.451 473.309c-.604 0-1.212-.016-1.829-.047-12.09-.62-22.132-6.883-30.359-12.928-13.085-9.615-31.638-29.381-46.169-49.187-13.263-18.076-29.072-44.064-29.072-65.225 0-32.669 22.16-55.589 55.144-57.032 23.174-1.023 40.396 8.704 51.836 21.607 11.438-12.903 28.639-22.621 51.835-21.607 31.951 1.398 55.143 25.383 55.143 57.032 0 21.161-15.81 47.15-29.072 65.226-14.532 19.806-33.086 39.572-46.169 49.185-.009.007-.115.085-.124.092-7.078 5.176-17.618 12.883-31.164 12.884zm22.307-24.991h.01z" fill="#ff8e8e"/></g><path d="m307.836 288.891c-23.196-1.013-40.396 8.704-51.835 21.607 0 0-.001-.001-.001-.001v162.8c.15.002.302.011.451.011 13.546-.001 24.086-7.708 31.162-12.883.009-.007.115-.085.124-.092 13.083-9.613 31.637-29.379 46.169-49.185 13.263-18.076 29.072-44.064 29.072-65.226.001-31.648-23.191-55.633-55.142-57.031z" fill="#ff415b"/></g></svg>