<svg id="Capa_1" enable-background="new 0 0 501 501" height="512" viewBox="0 0 501 501" width="512" xmlns="http://www.w3.org/2000/svg"><g><path d="m490 256c0 135.31-109.69 245-245 245s-245-109.69-245-245 109.69-245 245-245 245 109.69 245 245z" fill="#e43950"/><path d="m469.447 232.053c0 110.733-89.767 200.5-200.5 200.5s-200.5-89.767-200.5-200.5 89.767-200.5 200.5-200.5 200.5 89.766 200.5 200.5z" fill="#ea5569"/><path d="m457.363 267.762-14.556 5.386c-.686.254-1.227.795-1.481 1.481l-5.386 14.556c-.808 2.182-3.894 2.182-4.702 0l-5.386-14.556c-.254-.686-.795-1.227-1.481-1.481l-14.556-5.386c-2.182-.808-2.182-3.894 0-4.702l14.556-5.386c.686-.254 1.227-.795 1.481-1.481l5.386-14.556c.808-2.182 3.894-2.182 4.702 0l5.386 14.556c.254.686.795 1.227 1.481 1.481l14.556 5.386c2.183.808 2.183 3.894 0 4.702zm-244.267-134.65-11.692-4.327c-.551-.204-.986-.638-1.19-1.189l-4.326-11.692c-.649-1.753-3.128-1.753-3.777 0l-4.326 11.692c-.204.551-.638.985-1.19 1.189l-11.692 4.327c-1.753.648-1.753 3.128 0 3.776l11.692 4.327c.551.204.986.638 1.19 1.189l4.326 11.692c.649 1.753 3.128 1.753 3.777 0l4.326-11.692c.204-.551.638-.986 1.19-1.189l11.692-4.327c1.753-.648 1.753-3.128 0-3.776z" fill="#fd92d2"/><path d="m379 399.21v15.79c0 8.284-6.716 15-15 15h-152.421c-8.16 0-16.093-2.681-22.579-7.632-6.486-4.95-14.42-7.632-22.579-7.632h-97.947c-5.523 0-10-4.477-10-10v-132.631c0-5.523 4.477-10 10-10h147.895c5.523 0 10 4.477 10 10 0 61.914 50.191 112.105 112.105 112.105h25.526c8.284 0 15 6.716 15 15z" fill="#e1a595"/><path d="m364 292.632c8.284 0 15 6.715 15 15v15.79c0 8.281-6.71 14.995-14.99 15 8.28.005 14.99 6.719 14.99 15v15.79c0 8.284-6.716 15-15 15 6.531 0 12.087 4.174 14.146 10-2.059 5.826-7.615 10-14.146 10h-131.133c-9.046 0-17.893-2.653-25.446-7.632-7.553-4.978-16.4-7.632-25.446-7.632h-113.501c-5.523 0-10-4.477-10-10v-106.843c0-5.523 4.477-10 10-10h81.898c16.185 0 31.368-7.834 40.748-21.024l67.063-94.308c3.022-4.25 7.914-6.773 13.128-6.773 8.887 0 16.111 7.272 16.109 16.159-.006 29.673-15.777 59.072-26.798 86.623l-1.622 4.06h105c8.284 0 15 6.716 15 15v15.79c0 8.284-6.716 15-15 15z" fill="#eac0b5"/><path d="m379 360v9.21c0 8.284-6.716 15-15 15 .457 0 .909.021 1.356.061h-66.356c-6.702 0-12.136-5.433-12.136-12.136 0-6.702 5.433-12.136 12.136-12.136h80zm-92.136-79.548c0 6.702 5.433 12.136 12.136 12.136h66.159c7.743-.592 13.841-7.062 13.841-14.956v-9.316h-80c-6.703 0-12.136 5.434-12.136 12.136zm0 45.833c0 6.703 5.433 12.136 12.136 12.136h65.028c-.006 0-.012 0-.018 0 8.28-.005 14.99-6.719 14.99-15v-9.271h-80c-6.703-.001-12.136 5.433-12.136 12.135z" fill="#e1a595"/><path d="m266.444 140.753c4.765 4.964 5.622 12.737 1.647 18.7l-5.547 8.32c-1.532 2.298-4.636 2.918-6.934 1.387l-9.054-6.036 11.627-16.35c2.053-2.887 4.968-4.977 8.261-6.021z" fill="#f4e0d8"/><path d="m140.053 430h-52.632c-5.523 0-10-4.477-10-10v-163.158c0-5.523 4.477-10 10-10h52.632c5.523 0 10 4.477 10 10v163.158c0 5.523-4.478 10-10 10z" fill="#bbe0fb"/><path d="m150.053 368.947h-62.632c-5.523 0-10-4.477-10-10v-102.105c0-5.523 4.477-10 10-10h52.632c5.523 0 10 4.477 10 10z" fill="#fff5f5"/><path d="m.168 246.842h88.832v183.158h-16.479c-44.784-44.395-72.521-105.958-72.521-174 0-3.066.057-6.119.168-9.158z" fill="#003c79"/><path d="m27.531 368.947h61.469v61.053h-16.479c-17.972-17.816-33.199-38.397-44.99-61.053z" fill="#002c5d"/><path d="m320.813 1.613-9.01 18.256c-.263.534-.773.904-1.361.989l-20.146 2.927c-2.373.345-3.321 3.261-1.603 4.935l14.578 14.21c.426.415.621 1.014.52 1.601l-3.441 20.065c-.405 2.363 2.075 4.166 4.198 3.05l18.019-9.473c.527-.277 1.156-.277 1.683 0l18.019 9.473c2.123 1.116 4.603-.686 4.198-3.05l-3.441-20.065c-.101-.587.094-1.185.52-1.601l14.578-14.21c1.717-1.674.77-4.59-1.603-4.935l-20.146-2.927c-.589-.086-1.098-.455-1.362-.989l-9.01-18.256c-1.062-2.151-4.128-2.151-5.19 0z" fill="#fcb30b"/><path d="m409.757 36.475 24.913 50.479c.728 1.476 2.136 2.499 3.765 2.735l55.707 8.095c6.562.953 9.182 9.017 4.434 13.646l-40.31 39.292c-1.178 1.149-1.716 2.804-1.438 4.426l9.516 55.482c1.121 6.535-5.739 11.519-11.608 8.433l-49.826-26.195c-1.457-.766-3.197-.766-4.653 0l-49.826 26.195c-5.869 3.086-12.728-1.898-11.608-8.433l9.516-55.482c.278-1.622-.26-3.277-1.438-4.426l-40.31-39.292c-4.748-4.628-2.128-12.692 4.434-13.646l55.707-8.095c1.629-.237 3.036-1.259 3.765-2.735l24.913-50.479c2.934-5.946 11.413-5.946 14.347 0zm-53.237-12.69-20.146-2.927c-.589-.086-1.098-.455-1.362-.989l-9.01-18.256c-1.061-2.15-4.128-2.15-5.189 0l-9.01 18.256c-.263.534-.773.904-1.361.989l-3.65.53c.601 17.447 14.935 31.407 32.529 31.407 1.72 0 3.408-.133 5.055-.39l-1.35-7.874c-.101-.587.094-1.185.52-1.6l14.578-14.21c1.716-1.675.769-4.591-1.604-4.936z" fill="#f5c02c"/><path d="m242.224 38.196 6.446 17.42c.304.821.951 1.469 1.772 1.772l17.42 6.446c2.612.966 2.612 4.661 0 5.627l-17.42 6.446c-.821.304-1.469.951-1.772 1.772l-6.446 17.42c-.966 2.612-4.661 2.612-5.627 0l-6.446-17.42c-.304-.821-.951-1.469-1.772-1.772l-17.42-6.446c-2.612-.966-2.612-4.661 0-5.627l17.42-6.446c.821-.304 1.469-.951 1.772-1.772l6.446-17.42c.967-2.612 4.661-2.612 5.627 0zm256.351 73.234-40.31 39.292c-1.178 1.149-1.716 2.803-1.438 4.426l3.734 21.772c-4.555.71-9.224 1.08-13.979 1.08-48.649 0-88.282-38.6-89.945-86.844l10.094-1.467c1.629-.237 3.036-1.259 3.765-2.735l24.913-50.479c2.935-5.946 11.413-5.946 14.348 0l24.913 50.479c.728 1.476 2.136 2.499 3.765 2.735l55.707 8.095c6.561.954 9.181 9.018 4.433 13.646z" fill="#fded32"/><path d="m432.224 71.137 6.446 17.42c.304.821.951 1.469 1.772 1.772l17.42 6.446c2.612.966 2.612 4.661 0 5.627l-17.42 6.446c-.821.304-1.469.951-1.772 1.772l-6.446 17.42c-.966 2.612-4.661 2.612-5.627 0l-6.446-17.42c-.304-.821-.951-1.469-1.772-1.772l-17.42-6.446c-2.612-.966-2.612-4.661 0-5.627l17.42-6.446c.821-.304 1.469-.951 1.772-1.772l6.446-17.42c.967-2.612 4.661-2.612 5.627 0z" fill="#fcb30b"/></g></svg>